# xmcd CD database file
#
# Track frame offsets:
#	150
#	31320
#	46070
#	65352
#	77962
#	95335
#	110642
#	125020
#	140932
#	160737
#	189230
#	198485
#	218347
#	237205
#	252002
#
# Disc length: 3586 seconds
#
# Revision: 0
# Processed by: cddbd v1.4PL0 Copyright (c) Steve Scherf et al.
# Submitted via: CDex 1.40Release
#
DISCID=cb0e000f
DTITLE=Billy Boy Arnold - Checkin' It Out
DYEAR=1977
DGENRE=Blues
TTITLE0=Dirty Mother Fuyer
TTITLE1=Don't Stay Out All Night
TTITLE2=1-2-99
TTITLE3=Riding The El
TTITLE4=Just Got To Know
TTITLE5=Christmas Time
TTITLE6=I Wish You Would
TTITLE7=Ah'w Baby
TTITLE8=Sweet Miss Bea
TTITLE9=Blue And Lonesome
TTITLE10=Eldorado Cadillac
TTITLE11=Mary Bernice
TTITLE12=It's Great To Be Rich
TTITLE13=Just A Dream
TTITLE14=Catfish
EXTD=YEAR: 1977 ID3G: 0
EXTT0=
EXTT1=
EXTT2=
EXTT3=
EXTT4=
EXTT5=
EXTT6=
EXTT7=
EXTT8=
EXTT9=
EXTT10=
EXTT11=
EXTT12=
EXTT13=
EXTT14=
PLAYORDER=
